# 3ds Max Wavefront OBJ Exporter v0.97b - (c)2007 guruware
# File Created: 21.11.2017 11:40:28

mtllib test_gallery2_scene.mtl

#
# object Floor
#

v  -10.0000 -0.3000 -10.0000
v  -10.0000 -0.2000 -10.0000
v  10.0000 -0.2000 -10.0000
v  10.0000 -0.3000 -10.0000
v  -10.0000 -0.3000 10.0000
v  10.0000 -0.3000 10.0000
v  10.0000 -0.2000 10.0000
v  -10.0000 -0.2000 10.0000
# 8 vertices

vn 0.0000 0.0000 -1.0000
vn 0.0000 -0.0000 1.0000
vn 0.0000 -1.0000 -0.0000
vn 1.0000 0.0000 -0.0000
vn 0.0000 1.0000 0.0000
vn -1.0000 0.0000 -0.0000
# 6 vertex normals

vt 1.0000 0.0000 0.0000
vt 1.0000 1.0000 0.0000
vt 0.0000 1.0000 0.0000
vt 0.0000 0.0000 0.0000
# 4 texture coords

g Floor
usemtl White
f 1/1/1 2/2/1 3/3/1 
f 3/3/1 4/4/1 1/1/1 
f 5/4/2 6/1/2 7/2/2 
f 7/2/2 8/3/2 5/4/2 
f 1/4/3 4/1/3 6/2/3 
f 6/2/3 5/3/3 1/4/3 
f 4/4/4 3/1/4 7/2/4 
f 7/2/4 6/3/4 4/4/4 
f 3/4/5 2/1/5 8/2/5 
f 8/2/5 7/3/5 3/4/5 
f 2/4/6 1/1/6 5/2/6 
f 5/2/6 8/3/6 2/4/6 
# 12 faces

#
# object Gallery_Ceiling
#

v  -4.0000 2.5000 4.0000
v  -4.0000 2.5000 -4.0000
v  4.0000 2.5000 -4.0000
v  4.0000 2.5000 4.0000
v  -4.0000 2.6250 4.0000
v  4.0000 2.6250 4.0000
v  4.0000 2.6250 -4.0000
v  -4.0000 2.6250 -4.0000
# 8 vertices

vn 0.0000 -1.0000 -0.0000
vn 0.0000 1.0000 -0.0000
vn 0.0000 0.0000 1.0000
vn 1.0000 0.0000 -0.0000
vn 0.0000 0.0000 -1.0000
vn -1.0000 0.0000 -0.0000
# 6 vertex normals

vt 1.0000 0.0000 0.0000
vt 1.0000 1.0000 0.0000
vt 0.0000 1.0000 0.0000
vt 0.0000 0.0000 0.0000
# 4 texture coords

g Gallery_Ceiling
usemtl Gallery_Ceiling
f 9/5/7 10/6/7 11/7/7 
f 11/7/7 12/8/7 9/5/7 
f 13/8/8 14/5/8 15/6/8 
f 15/6/8 16/7/8 13/8/8 
f 9/8/9 12/5/9 14/6/9 
f 14/6/9 13/7/9 9/8/9 
f 12/8/10 11/5/10 15/6/10 
f 15/6/10 14/7/10 12/8/10 
f 11/8/11 10/5/11 16/6/11 
f 16/6/11 15/7/11 11/8/11 
f 10/8/12 9/5/12 13/6/12 
f 13/6/12 16/7/12 10/8/12 
# 12 faces

#
# object Gallery_Floor
#

v  -3.0625 0.0000 -3.0625
v  -3.0625 0.0000 3.0625
v  3.0625 0.0000 -3.0625
v  3.0625 0.0000 3.0625
v  3.0625 -0.1250 3.0625
v  -3.0625 -0.1250 3.0625
v  3.0625 -0.1250 -3.0625
v  -3.0625 -0.1250 -3.0625
# 8 vertices

vn 0.0000 1.0000 -0.0000
vn 0.0000 -1.0000 -0.0000
vn 0.0000 0.0000 1.0000
vn 1.0000 0.0000 -0.0000
vn 0.0000 0.0000 -1.0000
vn -1.0000 0.0000 -0.0000
# 6 vertex normals

vt -0.0625 6.0625 1.0000
vt -0.0625 -0.0625 1.0000
vt 6.0625 6.0625 1.0000
vt 6.0625 -0.0625 1.0000
vt 6.0625 -0.0625 0.0000
vt -0.0625 -0.0625 0.0000
vt 6.0625 6.0625 0.0000
vt -0.0625 6.0625 0.0000
# 8 texture coords

g Gallery_Floor
usemtl Gallery_Floor
f 17/9/13 18/10/13 19/11/13 
f 20/12/13 19/11/13 18/10/13 
f 21/13/14 22/14/14 23/15/14 
f 24/16/14 23/15/14 22/14/14 
f 20/12/15 18/10/15 21/13/15 
f 22/14/15 21/13/15 18/10/15 
f 19/11/16 20/12/16 23/15/16 
f 21/13/16 23/15/16 20/12/16 
f 17/9/17 19/11/17 24/16/17 
f 23/15/17 24/16/17 19/11/17 
f 18/10/18 17/9/18 22/14/18 
f 24/16/18 22/14/18 17/9/18 
# 12 faces

#
# object Left_Wall
#

v  -3.0625 0.0000 3.0000
v  -3.0625 0.0000 -3.0000
v  -2.9375 0.0000 -3.0000
v  -2.9375 0.0000 3.0000
v  -3.0625 2.5000 3.0000
v  -2.9375 2.5000 3.0000
v  -2.9375 2.5000 -3.0000
v  -3.0625 2.5000 -3.0000
# 8 vertices

vn 0.0000 -1.0000 -0.0000
vn 0.0000 1.0000 -0.0000
vn 0.0000 0.0000 1.0000
vn 1.0000 0.0000 -0.0000
vn 0.0000 0.0000 -1.0000
vn -1.0000 0.0000 -0.0000
# 6 vertex normals

vt 1.0000 0.0000 0.0000
vt 1.0000 1.0000 0.0000
vt 0.0000 1.0000 0.0000
vt 0.0000 0.0000 0.0000
# 4 texture coords

g Left_Wall
usemtl Room_Dutch_White_Matte
f 25/17/19 26/18/19 27/19/19 
f 27/19/19 28/20/19 25/17/19 
f 29/20/20 30/17/20 31/18/20 
f 31/18/20 32/19/20 29/20/20 
f 25/20/21 28/17/21 30/18/21 
f 30/18/21 29/19/21 25/20/21 
f 28/20/22 27/17/22 31/18/22 
f 31/18/22 30/19/22 28/20/22 
f 27/20/23 26/17/23 32/18/23 
f 32/18/23 31/19/23 27/20/23 
f 26/20/24 25/17/24 29/18/24 
f 29/18/24 32/19/24 26/20/24 
# 12 faces

#
# object Back_Wall
#

v  -3.0000 0.0000 -2.9375
v  -3.0000 0.0000 -3.0625
v  3.0000 0.0000 -3.0625
v  3.0000 0.0000 -2.9375
v  -3.0000 2.5000 -2.9375
v  3.0000 2.5000 -2.9375
v  3.0000 2.5000 -3.0625
v  -3.0000 2.5000 -3.0625
# 8 vertices

vn 0.0000 -1.0000 -0.0000
vn 0.0000 1.0000 -0.0000
vn 0.0000 0.0000 1.0000
vn 1.0000 0.0000 -0.0000
vn 0.0000 0.0000 -1.0000
vn -1.0000 0.0000 -0.0000
# 6 vertex normals

vt 1.0000 0.0000 0.0000
vt 1.0000 1.0000 0.0000
vt 0.0000 1.0000 0.0000
vt 0.0000 0.0000 0.0000
# 4 texture coords

g Back_Wall
usemtl Room_Dutch_White_Matte
f 33/21/25 34/22/25 35/23/25 
f 35/23/25 36/24/25 33/21/25 
f 37/24/26 38/21/26 39/22/26 
f 39/22/26 40/23/26 37/24/26 
f 33/24/27 36/21/27 38/22/27 
f 38/22/27 37/23/27 33/24/27 
f 36/24/28 35/21/28 39/22/28 
f 39/22/28 38/23/28 36/24/28 
f 35/24/29 34/21/29 40/22/29 
f 40/22/29 39/23/29 35/24/29 
f 34/24/30 33/21/30 37/22/30 
f 37/22/30 40/23/30 34/24/30 
# 12 faces

#
# object Right_Wall
#

v  2.9375 0.0000 3.0000
v  2.9375 0.0000 -3.0000
v  3.0625 0.0000 -3.0000
v  3.0625 0.0000 3.0000
v  2.9375 2.5000 3.0000
v  3.0625 2.5000 3.0000
v  3.0625 2.5000 -3.0000
v  2.9375 2.5000 -3.0000
# 8 vertices

vn 0.0000 -1.0000 -0.0000
vn 0.0000 1.0000 -0.0000
vn 0.0000 0.0000 1.0000
vn 1.0000 0.0000 -0.0000
vn 0.0000 0.0000 -1.0000
vn -1.0000 0.0000 -0.0000
# 6 vertex normals

vt 1.0000 0.0000 0.0000
vt 1.0000 1.0000 0.0000
vt 0.0000 1.0000 0.0000
vt 0.0000 0.0000 0.0000
# 4 texture coords

g Right_Wall
usemtl Room_Dutch_White_Matte
f 41/25/31 42/26/31 43/27/31 
f 43/27/31 44/28/31 41/25/31 
f 45/28/32 46/25/32 47/26/32 
f 47/26/32 48/27/32 45/28/32 
f 41/28/33 44/25/33 46/26/33 
f 46/26/33 45/27/33 41/28/33 
f 44/28/34 43/25/34 47/26/34 
f 47/26/34 46/27/34 44/28/34 
f 43/28/35 42/25/35 48/26/35 
f 48/26/35 47/27/35 43/28/35 
f 42/28/36 41/25/36 45/26/36 
f 45/26/36 48/27/36 42/28/36 
# 12 faces

